Coordinates
version=1
nRows=10
nColumns=38
inDegrees=yes

Units are S.I. units (second, meters, Newtons, ...)
Angles are in degrees.

endheader
time	pelvis_tilt	pelvis_list	pelvis_rotation	pelvis_tx	pelvis_ty	pelvis_tz	hip_flexion_r	hip_adduction_r	hip_rotation_r	knee_angle_r	ankle_angle_r	subtalar_angle_r	mtp_angle_r	hip_flexion_l	hip_adduction_l	hip_rotation_l	knee_angle_l	ankle_angle_l	subtalar_angle_l	mtp_angle_l	lumbar_extension	lumbar_bending	lumbar_rotation	arm_flex_r	arm_add_r	arm_rot_r	elbow_flex_r	pro_sup_r	wrist_flex_r	wrist_dev_r	arm_flex_l	arm_add_l	arm_rot_l	elbow_flex_l	pro_sup_l	wrist_flex_l	wrist_dev_l
      3.05000000	     -0.16001552	      3.96271239	     -3.63279970	      0.56350563	      0.92492908	      0.30340246	     28.78105877	     -2.77488635	     -1.29242163	    -49.03001820	     -2.23929235	    -12.33038895	     14.92551328	      1.24372484	      7.95387736	      3.89404530	    -16.20592226	     10.79776890	     -1.04819973	      2.55616102	     -4.42907287	     -2.87706395	     -4.75702383	     -7.19413250	    -17.03166763	      9.81862866	     22.74650673	     86.51662706	      0.00000000	      0.00000000	     -2.97865343	    -18.48076746	      8.48389924	     31.02759739	     86.51662706	      0.00000000	      0.00000000
      3.06000000	      0.00154471	      3.89479813	     -3.48227105	      0.57571959	      0.92452814	      0.30441452	     29.05399573	     -2.97453623	     -1.67457767	    -45.67733262	     -1.99013721	    -12.53167487	     14.51162376	     -0.25230326	      7.84615862	      4.16635084	    -15.38040451	     11.20886383	     -0.98535055	      2.56236158	     -4.71752247	     -2.76174420	     -5.06326529	     -7.38096838	    -16.98255270	      9.61335044	     22.37666228	     86.51662706	      0.00000000	      0.00000000	     -2.75205809	    -18.74332592	      8.06680350	     32.14095728	     86.51662706	      0.00000000	      0.00000000
      3.07000000	      0.19608491	      3.86740114	     -3.31987353	      0.58801958	      0.92391102	      0.30547632	     29.18574794	     -3.21964265	     -2.05916938	    -42.17430775	     -1.74762599	    -12.37274694	     14.11182650	     -1.77964669	      7.76946809	      4.48075198	    -14.56138379	     11.58530666	     -0.93203565	      2.59671912	     -5.03483565	     -2.69921000	     -5.35465173	     -7.55779267	    -16.92248579	      9.44265405	     22.00889045	     86.51662706	      0.00000000	      0.00000000	     -2.53122847	    -18.99961185	      7.66224758	     33.22878937	     86.51662706	      0.00000000	      0.00000000
      3.08000000	      0.41677192	      3.87140382	     -3.14067608	      0.60040271	      0.92308729	      0.30660013	     29.18500641	     -3.50271795	     -2.46214103	    -38.56133743	     -1.49920274	    -11.78502880	     13.73029257	     -3.32376011	      7.71251542	      4.83306164	    -13.77153882	     11.92601162	     -0.88911385	      2.66377007	     -5.37163374	     -2.67928182	     -5.63678777	     -7.72581841	    -16.85344113	      9.30678833	     21.64543184	     86.51662706	      0.00000000	      0.00000000	     -2.31656874	    -19.24561307	      7.27168863	     34.27885057	     86.51662706	      0.00000000	      0.00000000
      3.09000000	      0.65492507	      3.89470463	     -2.94327035	      0.61288610	      0.92209522	      0.30778917	     29.06517227	     -3.81066329	     -2.90206228	    -34.88704700	     -1.23585461	    -10.74900860	     13.36633712	     -4.86593204	      7.65975978	      5.21047750	    -13.03679495	     12.23661994	     -0.85068495	      2.76576081	     -5.71630832	     -2.68737630	     -5.91315256	     -7.88536814	    -16.77803938	      9.20518350	     21.28703260	     86.51662706	      0.00000000	      0.00000000	     -2.10869612	    -19.47689978	      6.89649820	     35.27869390	     86.51662706	      0.00000000	      0.00000000
      3.10000000	      0.90117130	      3.92384321	     -2.72924223	      0.62549845	      0.92097262	      0.30903993	     28.84602964	     -4.12451870	     -3.39593382	    -31.21127513	     -0.95054715	     -9.29834970	     13.01565019	     -6.38414206	      7.59445031	      5.59407469	    -12.38427320	     12.52729078	     -0.80543619	      2.90249679	     -6.05680613	     -2.70640451	     -6.18502992	     -8.03533518	    -16.69900977	      9.13685029	     20.93316614	     86.51662706	      0.00000000	      0.00000000	     -1.90847227	    -19.68920443	      6.53803680	     36.21660639	     86.51662706	      0.00000000	      0.00000000
      3.11000000	      1.14652915	      3.94548216	     -2.50165249	      0.63824969	      0.91973427	      0.31035042	     28.55425357	     -4.42141753	     -3.95365758	    -27.60747782	     -0.63781876	     -7.51630624	     12.67234079	     -7.85461036	      7.50101891	      5.96219270	    -11.84014079	     12.80923012	     -0.73850890	      3.07175909	     -6.38233302	     -2.71925863	     -6.45223450	     -8.17303425	    -16.61860724	      9.10062751	     20.58253838	     86.51662706	      0.00000000	      0.00000000	     -1.71713407	    -19.87909151	      6.19765915	     37.08262706	     86.51662706	      0.00000000	      0.00000000
      3.12000000	      1.38332685	      3.94770233	     -2.26349962	      0.65111899	      0.91837682	      0.31172609	     28.22169307	     -4.67842822	     -4.57271917	    -24.16314043	     -0.29455480	     -5.52539822	     12.33126096	     -9.25395079	      7.36622552	      6.29410057	    -11.42758418	     13.09099840	     -0.63353134	      3.27042539	     -6.68444957	     -2.71130143	     -6.71420505	     -8.29461435	    -16.53817956	      9.09530107	     20.23372401	     86.51662706	      0.00000000	      0.00000000	     -1.53659448	    -20.04443642	      5.87665192	     37.86938272	     86.51662706	      0.00000000	      0.00000000
      3.13000000	      1.60571702	      3.92090996	     -2.01657636	      0.66407920	      0.91690408	      0.31319017	     27.88173059	     -4.87701294	     -5.23519464	    -20.97666203	      0.07867801	     -3.47248005	     11.99005324	    -10.56194386	      7.17995352	      6.57310160	    -11.16509839	     13.37555740	     -0.47451668	      3.49630368	     -6.95729334	     -2.67217576	     -6.97097828	     -8.39601490	    -16.45804611	      9.11962972	     19.88577634	     86.51662706	      0.00000000	      0.00000000	     -1.36990052	    -20.18451615	      5.57614209	     38.57249165	     86.51662706	      0.00000000	      0.00000000
      3.14000000	      1.80989913	      3.85899378	     -1.76081280	      0.67712192	      0.91534947	      0.31478225	     27.56485006	     -5.00628911	     -5.90887585	    -18.14990773	      0.47634595	     -1.51181156	     11.65043845	    -11.76426342	      6.93650623	      6.78849039	    -11.06509357	     13.65866700	     -0.24740279	      3.75050964	     -7.19695448	     -2.59663059	     -7.22368345	     -8.47430330	    -16.37774447	      9.17232058	     19.53867029	     86.51662706	      0.00000000	      0.00000000	     -1.22177747	    -20.29971739	      5.29703726	     39.19037065	     86.51662706	      0.00000000	      0.00000000
